<svg xmlns="http://www.w3.org/2000/svg" version="1.1" xmlns:xlink="http://www.w3.org/1999/xlink" xmlns:svgjs="http://svgjs.dev/svgjs" width="1000" height="1125" viewBox="0 0 1000 1125"><g transform="matrix(1,0,0,1,0,0)"><svg viewBox="0 0 320 360" data-background-color="#ffffff" preserveAspectRatio="xMidYMid meet" height="1125" width="1000" xmlns="http://www.w3.org/2000/svg" xmlns:xlink="http://www.w3.org/1999/xlink"><g id="tight-bounds" transform="matrix(1,0,0,1,0,0)"><svg viewBox="0 0 320 360" height="360" width="320"><g><svg></svg></g><g><svg viewBox="0 0 320 360" height="360" width="320"><g><path xmlns="http://www.w3.org/2000/svg" d="M165.217 303.356c-1.404-1.755-2.809-0.702-2.808-1.755-8.426 2.106-24.223-3.511-30.894-2.809 1.404-2.106-2.106-1.755-2.106-3.159-1.404 2.106-2.809 0-4.915 0.702-2.106-5.266-10.532-1.404-11.585-8.075-4.915 0-6.67-2.809-11.586-5.617 0.351-0.351 0.702-0.351 1.054-0.702-2.457-0.351-2.457-1.755-4.564-1.755l0.702-1.405c-3.862-0.702-5.266-6.67-10.883-8.776-1.755-0.351-5.617-6.319-7.723-7.724-1.053-0.702-2.809-0.702-0.352-1.053-0.351-0.351-0.351-1.053 0-1.404-2.457-0.702-2.809-2.809-5.968-3.862-0.351-1.053 0.702-1.755 0-2.457-0.702-0.351-1.755 0.351-2.457 0-0.351 6.319 6.67 7.021 8.777 12.287-0.702-0.702-1.755-2.809-2.458-1.404-0.351 1.053 2.809 4.915 2.809 2.808-1.053 0.702-1.404-1.053-0.703-1.404 1.053 1.755 3.16 1.404 3.16 2.809-1.053 1.053-2.457-1.053-2.106 0.702 3.16 1.755 2.809 3.511 4.563 5.968-1.404-1.755-1.755 1.404-3.159 0-0.351-5.266-6.319-4.213-6.319-9.479-0.702-1.755-1.404-0.351-2.458-1.053 1.404-1.404-4.213-6.319-4.213-4.564-1.755-2.106-0.702-2.809-1.053-4.213-1.404-0.351-0.351 1.404-1.404 0.351 1.404-2.457-1.755-5.617-3.862-8.074l1.405-0.702c-2.457-1.404-2.809-4.213-4.564-7.373-2.106 3.16 4.213 10.181 3.159 11.585 0 0.351 2.457 3.16 3.16 4.564 2.809 4.915 4.915 10.883 8.777 13.692-0.702-0.351-0.351-2.457 0.702-1.404 0 1.053-0.702 2.106-0.702 3.159 2.106 2.106 3.862 3.862 5.968 5.968-4.564-2.809-9.128-5.617-12.288-9.83 1.755-0.351 3.511 2.809 4.915 2.458-3.511-2.809-2.457-3.862-3.861-7.372-1.404-1.053 0.351 1.404-1.054 1.755-4.564-4.213-8.075-6.67-10.181-10.532 0.351-0.351 0.702-0.702 0.703-1.404-0.351-0.351-0.351-0.351-0.703-0.702 2.106 2.106 2.809 3.862 5.266 4.212-1.053-1.053 0-1.404-1.404-2.457-0.702-1.404-1.755 0.702-2.457-0.351 0.702-1.053 0-2.457 0-3.511-0.702 0-1.404 0-1.756-1.053-0.702-0.351-1.053 0-1.404 0.702-0.351-0.351-0.351-1.053-0.702-1.404v-0.351c-0.351-0.351-0.702-1.053-1.053-1.405-2.809-7.372-4.564-17.202-8.426-23.521 1.053-4.213-0.702-12.638-1.755-14.745 1.053-1.755 0.351-9.83-0.351-11.234-1.755 0.702 0.351 4.564-1.404 5.617-1.755-7.723 1.053-16.5 0.351-23.521 0.702 0 1.404 0 1.404-0.351-1.053-1.053 0.702-3.16 0.351-5.617 1.404-3.16-3.16 4.564-3.16 7.723-0.351 0.702-1.755 0-1.404 1.756 0 2.457 0.702 7.372-0.702 10.883-0.702 0-0.702-0.702-1.404-0.351-0.351 1.755-0.702 3.862-1.053 5.617-0.351-0.702-0.702-1.755-0.703-2.107-1.755-8.777 0-18.958-0.702-26.33 1.404 0 1.404-2.106 2.458-2.808-0.351 2.809-1.053 6.319 0.702 7.021 1.404-13.692 4.213-28.787 10.532-43.532 4.564-10.883 11.234-21.766 19.308-30.543 0.702 1.053-0.351 3.511 0 4.564 7.021-7.372 11.585-16.149 19.309-21.064 0.351 1.755-3.16 3.16-3.16 4.564 3.16-3.16 4.213-2.106 7.724-3.159 1.053-1.404-1.404 0-1.756-1.405 2.106-1.404 3.511-3.16 4.915-4.212 0 0.351-0.351 0.351-0.351 0.702 3.862-1.053 4.213-3.16 7.022-3.862-0.351-0.351-1.053-0.702-2.107-0.351 0.702-0.351 1.755-1.053 2.809-1.404-0.351 0-0.351 0.351-0.702 0.351 2.106-1.053 0.351 0.351 0.351 1.053 0.351 0 0.702-0.351 0.702-0.351-2.106 1.404-3.511 2.106-4.213 4.564 1.053-0.702 1.404 0 2.809-1.054 1.404-0.702-0.351-1.755 0.702-2.457 1.053 0.702 2.457 0.351 3.51 0.351 0-0.702 0.351-1.404 1.054-1.755 0.351-0.702 0-1.053-0.352-1.053 0.351-0.351 0.702-0.351 1.405-0.703 0 0 0.351 0 0.351 0.351 5.968-2.809 12.638-5.266 18.957-7.372 3.862-0.351 8.777-0.351 10.883-2.808-0.702 0-1.404 0.351-1.755 0 0.351 0 1.053-0.351 1.404-0.351 0.702 0.702 1.755 0 0.702 1.404 0.351 0 0.351 0 0.703-0.351 0 0.351 0 0.351 0.351 0.702 0.351 0 0.702-0.351 1.053-1.053 0.351 0 0.702 0 1.053-0.351l-0.351 0.351c2.809-0.702 5.266-0.351 9.128-1.054 0-0.351 0-0.702 0-1.053 0.702 0 1.053-0.351 1.755-0.351v0.351c1.404-0.702 2.809 0.702 2.808 0 0.351 0 0.351 0 0.703 0 0 0.702-0.351 1.053-0.351 1.405 1.755 0 2.809 0 3.51-1.054-0.351-0.351-0.702-0.351-1.053-0.351 0.702 0 1.404-0.351 2.106-0.702 1.053 0.351 1.404 0.702 1.405 2.107 1.755-3.16 7.372 0.702 9.829 0 1.053 0 0.702-1.404 1.405-2.107 0.351 0 0.702 0 1.053 0 1.755 1.404 4.213 2.809 7.372 3.16-2.809-0.702 0.351-1.053 0.702-1.405-0.702 0-0.702-0.351-0.702-0.702 1.053 0 2.106 0.351 3.16 0.351 0 0.702 0.351 1.053 1.053 1.054 0.702 0 0.702-0.351 0.702-1.054 1.053 0 1.755 0 2.809 0.351-0.351 1.404 1.755 1.755 2.457 2.809-2.809-0.702-5.968-1.755-7.021 0 11.234 2.457 23.521 5.968 35.457 11.936 0 0 0 0 0 0.351h0.352c2.106 1.053 4.213 2.106 6.319 3.16 1.404 0.702 2.457 1.404 3.861 2.457 0 0.351 0 0.702 0.703 0.702h0.351c1.404 1.053 2.809 1.755 4.212 2.809 1.404 2.106 2.809 4.915 5.266 4.213 5.266 8.075 10.883 11.234 15.447 19.659 0.351-1.404 1.404 3.16 3.16 3.511-2.809-0.351 1.755 1.755-1.053 1.404 2.457 2.457 3.16 3.511 3.51 6.319-0.702-1.404-1.053-1.755-1.404-0.351-0.351 2.106 2.457-0.351 3.511 1.756-2.106 0-1.404 1.404-1.054 3.159 1.053-1.053 0.702-2.106 1.756-1.755 1.404 1.404-0.702 1.755-0.351 2.809 1.053-1.404 1.404-0.702 2.808 0-1.755 0.351 1.053 2.809-1.053 1.755 1.404 1.755 1.755 2.809 1.053 4.564-1.404-2.106-0.351-3.511-2.457-3.16 4.213 3.511 2.106 11.585 7.021 12.287-3.16 0.702 0 2.106-1.755 2.458 2.106 0.702 1.053 3.511 3.51 4.213-0.351 1.755-1.053 2.809-1.404 4.563 1.053 1.404 1.404 4.213 3.16 4.564-1.053 1.053-0.351 3.862-1.404 4.915 1.404-0.702 2.106-0.702 3.159 0.702-1.755 1.404-0.351 2.809-1.404 3.16 3.16 8.075-0.702 24.575 1.053 30.894-2.106-1.053-1.404 2.457-2.808 2.457 2.457 1.053 0.351 2.809 1.404 4.564-4.915 2.809 0 10.532-6.67 12.287 0.702 4.915-2.106 7.021-4.213 12.288-0.351-0.351-0.351-0.702-0.702-1.054-0.351 2.457-1.755 2.809-1.054 4.915l-1.404-0.702c0 3.862-5.968 5.968-7.372 11.936-0.351 1.755-5.617 6.319-7.022 8.777-0.702 1.053-0.351 2.809-1.053 0.351-0.351 0.351-1.053 0.351-1.404 0.351-0.351 2.457-2.457 3.16-3.16 6.319-0.702 0.351-1.755-0.702-2.457 0.351 0 0.702 0.702 1.755 0.351 2.458 6.319-0.351 6.319-7.723 11.234-10.181-0.351 1.053-2.457 2.106-1.053 2.808 1.053 0 4.213-3.511 2.457-3.159 1.053 0.702-1.053 1.404-1.404 1.053 1.755-1.404 1.053-3.16 2.458-3.511 1.053 0.702-1.053 2.457 1.053 2.107 1.404-3.16 3.16-3.511 5.266-5.266-1.404 1.404 1.755 1.755 0.351 3.159-5.266 1.053-3.511 7.021-8.777 7.724-1.404 1.053-0.351 1.404-0.702 2.457-1.755-1.053-5.617 4.915-4.213 4.564-1.755 1.755-2.809 1.053-4.212 1.404-0.351 1.404 1.404 0.351 0.702 1.405-2.457-1.053-5.617 2.457-7.724 4.915l-1.053-1.054c-1.053 2.809-3.862 3.16-7.021 5.266 3.511 1.755 9.479-5.617 11.234-4.564 0.351 0 3.16-2.809 4.213-3.861 4.564-3.511 10.181-6.319 12.287-10.181-0.351 0.702-2.457 0.702-1.404-0.351 1.053-0.351 2.106 0.351 3.159 0.351 5.617-7.723 12.638-14.043 17.905-23.17 0.351-0.351 0.702-1.053 1.053-1.756-0.702 2.106-1.755 3.862-2.458 5.968-5.617 3.862-7.723 15.096-14.393 16.851 0.351 3.862-3.16 4.915-4.915 9.479-1.053 1.404-1.755-1.053-2.809 0.702 1.053 4.915-8.777 4.564-8.425 9.128-0.702 0.351-1.755 0.702-2.458 1.404h-0.351c-0.351 0.351-0.351 0.351-0.702 0.702-1.755 1.053-3.16 2.106-4.564 3.16-4.915 2.809-11.585 4.915-16.851 7.723v-0.351c-1.404 0.702-3.16 0.351-2.809 1.756-1.053 0.702-2.106 1.404-3.159 2.106-0.351 0-0.351 0-0.702 0 0 0-0.351-0.351-0.702-0.351-0.702 0-0.702 0-1.054 0.351-4.564 0.351-10.532 2.457-12.287 3.862-1.755-1.053-9.83 0.702-11.234 1.404 0.702 1.053 2.809 0 4.564 0-1.053 0.351-2.106 0.702-2.458 1.404-0.351 0-0.351 0-0.702 0-0.351-1.053-1.404 0-1.755-0.351h0.351c-0.351-1.404-1.404-2.106-3.16-1.755 0 0.702 0 1.053-0.351 1.755 0.702 0 2.809-1.053 2.809 0-0.351 0-0.351 0.351 0 0.351-0.702 0.702-1.755 0.702-2.458 1.054-1.404 0-3.16 0-4.563 0-0.351-0.351-0.702-0.351-1.405-0.703-0.351 0.351-1.053 0.351-1.404 0.703-2.106 0-4.564 0.351-6.319 0.702 0-0.702 0-1.404-0.702-1.405-1.053 1.404-3.16-0.351-5.617 0.352-2.457-0.702 1.404 1.053 4.915 1.755-0.351 0.351-0.702 0.702-1.756 1.053M116.068 308.271c-4.915-4.564-15.096-6.67-16.851-10.181-2.809-0.351-7.021-5.617-10.532-6.319 1.755 0 0.351-1.053 0-1.755-0.702 0.702-1.404 1.053-2.106 1.053 0-2.809-2.809-4.564-5.266-6.319 1.755 1.053 3.16 1.755 5.266 2.106 0-0.702 0-1.404 0.702-1.404 2.457 2.457 5.266 4.915 8.425 7.372 4.213 3.862 25.979 13.692 29.841 15.447 0 0-0.702 1.404-0.351 1.404 1.755 1.053 3.16-1.053 3.511 1.404-5.617 0.702-7.723-3.16-12.639-2.808M277.909 226.824v0.351 0c-0.351 0 0-0.351 0-0.351M136.079 64.281c-0.351 0.351-0.702 0.351-0.702 0.351 0-0.351 0.351-0.351 0.702-0.351M129.409 66.036c0 0.351 0 0.351 0 0 0 0.351 0 0.351 0 0 0 0.351 0 0 0 0M106.238 73.408v0c0.351-0.351 0.351-0.351 0.703-0.351-0.351 0-0.702 0.351-0.703 0.351M162.409 61.823c-0.702 0-1.053 0-1.404-0.351 0.351 0 0.702 0 1.053 0h0.351c0 0 0 0 0 0.351M168.728 62.525c-0.351-0.351-1.404-0.702-2.457-0.702 0-0.351 0.351-0.702 0.351-0.702 0.351 0 0.702 0 1.053 0 0 0 0.351 0 0.351 0.351 0 0 0 0 0-0.351 0.351 0 0.351 0 0.702 0 0.351 0.702 0.702 1.053 0 1.404M180.313 63.579c-1.755 0.351-2.809-0.351-4.564-1.405 1.053 0 2.457 0.351 3.511 0.702 0.351 0 0.702 0.351 1.053 0.703M305.292 113.43c-0.702 0.351-1.053 0.351-1.755-1.053-5.617-11.936-15.798-29.138-30.543-43.532-14.394-14.745-33.702-26.681-51.255-33.001 1.053 0.351 2.457 1.053 1.755 1.756-15.447-5.968-30.192-9.479-44.234-10.883-37.915-5.968-77.585 2.106-108.128 21.766 0.351 0.702 0.351 1.053-0.702 1.755-11.234 7.021-27.032 19.309-39.671 35.458-12.638 16.149-22.468 36.511-26.681 54.766 0.351-1.053 0.702-2.809 1.405-2.107-9.128 36.16-6.67 67.053 5.968 93.735 0.702-0.702-1.755-4.213 0.351-3.862 1.404 3.862 3.16 8.075 5.266 11.936 2.457 5.617 5.266 12.989 9.128 14.745-9.83-19.309-16.5-41.426-17.203-61.085 1.404 2.809 1.053 8.777 3.16 11.234 0.702-13.34-2.457-31.245 2.106-43.883-1.053 6.67-1.755 15.798-1.053 24.925 0 6.67 3.16 25.277 5.266 27.032-0.351-0.351-0.351-2.106 0-2.106 1.053 2.106-1.404 3.16 0.351 3.511 0-0.702 0.351-0.702 0.702-0.703 3.511 7.723 8.075 19.66 11.585 25.628 4.213 7.723 9.83 14.745 16.149 21.064 0 0.351 0.351 0.351 0.352 0.702 0.702 1.755 3.16 3.862 3.861 5.266 0.351 0.702-0.351 1.755 0 2.458 5.266 9.83 12.989 19.66 22.468 27.383 5.968 7.021 15.447 14.394 27.032 20.713 11.234 5.968 24.223 10.883 36.16 13.691 8.426 2.106 18.606 2.457 24.926 3.862 8.426 1.755 23.17-0.702 30.542-2.107 44.234-6.67 88.117-36.862 110.235-80.393 22.819-43.883 22.117-97.596 2.457-138.671" fill="#ee3e38" fill-rule="nonzero" stroke="none" stroke-width="1" stroke-linecap="butt" stroke-linejoin="miter" stroke-miterlimit="10" stroke-dasharray="" stroke-dashoffset="0" font-family="none" font-weight="none" font-size="none" text-anchor="none" style="mix-blend-mode: normal" data-fill-palette-color="tertiary"></path></g><g transform="matrix(1,0,0,1,80,146.28339569553805)"><svg viewBox="0 0 160 67.43320860892389" height="67.43320860892389" width="160"><g><svg viewBox="0 0 160 67.43320860892389" height="67.43320860892389" width="160"><g><svg viewBox="0 0 160 67.43320860892389" height="67.43320860892389" width="160"><g transform="matrix(1,0,0,1,0,41.6764282064742)"><svg viewBox="0 0 160 25.756780402449696" height="25.756780402449696" width="160"><g id="textblocktransform"><svg viewBox="0 0 160 25.756780402449696" height="25.756780402449696" width="160" id="textblock"><g><svg viewBox="0 0 160 25.756780402449696" height="25.756780402449696" width="160"><g transform="matrix(1,0,0,1,0,0)"><svg width="160" viewBox="3.5 -36.29999923706055 228.5800018310547 36.79999923706055" height="25.756780402449696" data-palette-color="#ee3e38"><path d="M3.5 0L3.5-33.85Q3.85-33.85 5.1-33.88 6.35-33.9 7.9-33.9 9.45-33.9 11-33.93 12.55-33.95 13.55-33.95L13.55-33.95Q19.75-33.95 22.6-31.53 25.45-29.1 25.45-24.7L25.45-24.7Q25.45-21.8 24-19.55 22.55-17.3 19.25-16.3L19.25-16.3Q20.65-15.5 21.75-14.1 22.85-12.7 23.9-10.68 24.95-8.65 26.05-5.98 27.15-3.3 28.6 0L28.6 0 22.15 0Q20.45-3.95 19.18-6.75 17.9-9.55 16.7-11.3 15.5-13.05 14.13-13.85 12.75-14.65 10.9-14.65L10.9-14.65 9.45-14.65 9.45 0 3.5 0ZM9.45-29.7L9.45-19 13.3-19Q16.1-19 17.63-20.25 19.15-21.5 19.15-23.95L19.15-23.95Q19.15-25.05 18.85-26.1 18.55-27.15 17.82-27.95 17.1-28.75 15.88-29.23 14.65-29.7 12.8-29.7L12.8-29.7 9.45-29.7ZM29.45-11.85Q29.45-15.2 30.37-17.75 31.3-20.3 32.92-22.03 34.55-23.75 36.75-24.63 38.95-25.5 41.5-25.5L41.5-25.5Q43.75-25.5 45.32-24.95 46.9-24.4 47.9-23.45 48.9-22.5 49.37-21.2 49.85-19.9 49.85-18.4L49.85-18.4Q49.85-16.6 48.85-14.98 47.85-13.35 45.97-12.13 44.1-10.9 41.45-10.18 38.8-9.45 35.5-9.4L35.5-9.4Q35.65-8.25 35.97-7.23 36.3-6.2 36.92-5.43 37.55-4.65 38.55-4.2 39.55-3.75 41.05-3.75L41.05-3.75Q42.15-3.75 43.4-4 44.65-4.25 45.7-4.6L45.7-4.6Q46.95-5 48.15-5.5L48.15-5.5 49.65-1.95Q48.35-1.3 46.85-0.8L46.85-0.8Q45.55-0.35 43.85 0 42.15 0.35 40.25 0.35L40.25 0.35Q37.35 0.35 35.3-0.53 33.25-1.4 31.95-3 30.65-4.6 30.05-6.85 29.45-9.1 29.45-11.85L29.45-11.85ZM41.05-21.6Q39.4-21.6 38.32-20.83 37.25-20.05 36.6-18.82 35.95-17.6 35.67-16.07 35.4-14.55 35.35-13L35.35-13Q37.75-13.1 39.42-13.63 41.1-14.15 42.15-14.93 43.2-15.7 43.67-16.6 44.15-17.5 44.15-18.4L44.15-18.4Q44.15-19.85 43.3-20.73 42.45-21.6 41.05-21.6L41.05-21.6ZM75.75 0L70.09 0 70.09-16.15Q70.09-18.25 69.34-19.53 68.59-20.8 66.8-20.8L66.8-20.8Q65.65-20.8 64.57-20.23 63.5-19.65 62.65-18.55 61.8-17.45 61.27-15.88 60.75-14.3 60.75-12.35L60.75-12.35 60.75 0 55.05 0 55.05-12.6Q55.05-15.6 54.65-17.63 54.25-19.65 53.8-20.9L53.8-20.9Q53.25-22.35 52.6-23.25L52.6-23.25 57.1-25.05Q57.6-24.5 58.1-23.7L58.1-23.7Q58.5-23 58.9-21.98 59.3-20.95 59.55-19.65L59.55-19.65Q60.85-22.65 63.3-23.98 65.75-25.3 68.45-25.3L68.45-25.3Q72.3-25.3 74.02-22.98 75.75-20.65 75.75-16.7L75.75-16.7 75.75 0ZM79.29-20.85L79.29-24.9 83.79-24.9 84.79-30.75 89.49-31.8 89.49-24.9 95.64-24.9 94.94-20.85 89.49-20.85 89.49-6.05Q89.49-4.75 90.19-4.38 90.89-4 91.74-4L91.74-4Q92.44-4 93.14-4.1 93.84-4.2 94.39-4.35L94.39-4.35Q95.04-4.5 95.64-4.7L95.64-4.7 96.59-0.95 96.14-0.8Q95.69-0.6 94.82-0.38 93.94-0.15 92.77 0.03 91.59 0.2 90.19 0.2L90.19 0.2Q88.79 0.2 87.62-0.1 86.44-0.4 85.59-1.07 84.74-1.75 84.27-2.8 83.79-3.85 83.79-5.4L83.79-5.4 83.79-20.85 79.29-20.85ZM119.44-23.85L119.44-12.05Q119.44-9.05 119.82-7.03 120.19-5 120.64-3.75L120.64-3.75Q121.19-2.25 121.84-1.4L121.84-1.4 117.39 0.4Q116.74-0.25 116.19-1.15L116.19-1.15Q115.74-1.95 115.34-3.08 114.94-4.2 114.84-5.75L114.84-5.75Q113.99-2.75 112.12-1.23 110.24 0.3 107.04 0.3L107.04 0.3Q104.69 0.3 102.97-0.58 101.24-1.45 100.09-3.08 98.94-4.7 98.39-7 97.84-9.3 97.84-12.1L97.84-12.1Q97.84-14.95 98.72-17.38 99.59-19.8 101.17-21.55 102.74-23.3 104.94-24.3 107.14-25.3 109.79-25.3L109.79-25.3Q111.29-25.3 112.92-25.08 114.54-24.85 115.94-24.6 117.34-24.35 118.32-24.13 119.29-23.9 119.44-23.85L119.44-23.85ZM107.99-3.7Q109.24-3.7 110.29-4.55 111.34-5.4 112.12-6.78 112.89-8.15 113.32-9.93 113.74-11.7 113.74-13.55L113.74-13.55 113.74-20.75Q113.24-20.9 112.24-21.1 111.24-21.3 110.44-21.3L110.44-21.3Q108.54-21.3 107.32-20.65 106.09-20 105.34-18.85 104.59-17.7 104.29-16.1 103.99-14.5 103.99-12.6L103.99-12.6Q103.99-10.85 104.09-9.25 104.19-7.65 104.62-6.4 105.04-5.15 105.84-4.42 106.64-3.7 107.99-3.7L107.99-3.7ZM131.44 0.2Q128.59 0.2 127.24-1.38 125.89-2.95 125.89-5.4L125.89-5.4 125.89-35.25 131.59-36.3 131.59-5.95Q131.59-4.8 132.04-4.35 132.49-3.9 133.34-3.9L133.34-3.9Q133.84-3.9 134.31-3.95 134.79-4 135.19-4.1L135.19-4.1Q135.64-4.2 135.99-4.3L135.99-4.3 136.69-0.7Q136.04-0.45 135.24-0.25L135.24-0.25Q134.54-0.05 133.59 0.08 132.64 0.2 131.44 0.2L131.44 0.2ZM161.09-16.15L160.94-33.85 166.89-33.85 166.89 0.05 161.94 0.05 150.54-17.75Q149.59-19.2 148.46-21.03 147.34-22.85 146.34-24.4L146.34-24.4Q146.49-22.8 146.61-21.05 146.74-19.3 146.74-17.7L146.74-17.7 146.89 0 140.94 0 140.94-33.95 145.59-33.95 157.34-16.35Q158.34-14.9 159.36-13.28 160.39-11.65 161.39-10.15L161.39-10.15Q161.29-11.75 161.19-13.38 161.09-15 161.09-16.15L161.09-16.15ZM171.78-11.85Q171.78-15.2 172.71-17.75 173.63-20.3 175.26-22.03 176.88-23.75 179.08-24.63 181.28-25.5 183.83-25.5L183.83-25.5Q186.08-25.5 187.66-24.95 189.23-24.4 190.23-23.45 191.23-22.5 191.71-21.2 192.18-19.9 192.18-18.4L192.18-18.4Q192.18-16.6 191.18-14.98 190.18-13.35 188.31-12.13 186.43-10.9 183.78-10.18 181.13-9.45 177.83-9.4L177.83-9.4Q177.98-8.25 178.31-7.23 178.63-6.2 179.26-5.43 179.88-4.65 180.88-4.2 181.88-3.75 183.38-3.75L183.38-3.75Q184.48-3.75 185.73-4 186.98-4.25 188.03-4.6L188.03-4.6Q189.28-5 190.48-5.5L190.48-5.5 191.98-1.95Q190.68-1.3 189.18-0.8L189.18-0.8Q187.88-0.35 186.18 0 184.48 0.35 182.58 0.35L182.58 0.35Q179.68 0.35 177.63-0.53 175.58-1.4 174.28-3 172.98-4.6 172.38-6.85 171.78-9.1 171.78-11.85L171.78-11.85ZM183.38-21.6Q181.73-21.6 180.66-20.83 179.58-20.05 178.93-18.82 178.28-17.6 178.01-16.07 177.73-14.55 177.68-13L177.68-13Q180.08-13.1 181.76-13.63 183.43-14.15 184.48-14.93 185.53-15.7 186.01-16.6 186.48-17.5 186.48-18.4L186.48-18.4Q186.48-19.85 185.63-20.73 184.78-21.6 183.38-21.6L183.38-21.6ZM204.28-25.5L204.28-25.5Q205.73-25.5 207.13-25.2 208.53-24.9 209.63-24.5L209.63-24.5Q210.93-24.05 212.03-23.55L212.03-23.55 210.33-19.65Q209.33-20.1 208.33-20.45L208.33-20.45Q207.48-20.75 206.46-21.03 205.43-21.3 204.43-21.3L204.43-21.3Q203.28-21.3 202.46-20.75 201.63-20.2 201.63-19.1L201.63-19.1Q201.63-16.25 205.78-14.65L205.78-14.65Q207.33-14.05 208.58-13.38 209.83-12.7 210.71-11.8 211.58-10.9 212.03-9.73 212.48-8.55 212.48-6.95L212.48-6.95Q212.48-5.55 211.91-4.2 211.33-2.85 210.21-1.8 209.08-0.75 207.46-0.13 205.83 0.5 203.78 0.5L203.78 0.5Q202.13 0.5 200.53 0.13 198.93-0.25 197.66-0.7 196.38-1.15 195.63-1.55L195.63-1.55 194.88-1.9 196.73-6.1 197.38-5.75Q198.03-5.35 199.03-4.9 200.03-4.45 201.18-4.08 202.33-3.7 203.28-3.7L203.28-3.7Q205.03-3.7 205.88-4.4 206.73-5.1 206.73-6.25L206.73-6.25Q206.73-7.55 205.81-8.63 204.88-9.7 203.03-10.4L203.03-10.4Q199.18-11.85 197.51-13.7 195.83-15.55 195.83-18.5L195.83-18.5Q195.83-19.9 196.48-21.18 197.13-22.45 198.26-23.43 199.38-24.4 200.93-24.95 202.48-25.5 204.28-25.5ZM214.78-20.85L214.78-24.9 219.28-24.9 220.28-30.75 224.98-31.8 224.98-24.9 231.13-24.9 230.43-20.85 224.98-20.85 224.98-6.05Q224.98-4.75 225.68-4.38 226.38-4 227.23-4L227.23-4Q227.93-4 228.63-4.1 229.33-4.2 229.88-4.35L229.88-4.35Q230.53-4.5 231.13-4.7L231.13-4.7 232.08-0.95 231.63-0.8Q231.18-0.6 230.3-0.38 229.43-0.15 228.25 0.03 227.08 0.2 225.68 0.2L225.68 0.2Q224.28 0.2 223.1-0.1 221.93-0.4 221.08-1.07 220.23-1.75 219.75-2.8 219.28-3.85 219.28-5.4L219.28-5.4 219.28-20.85 214.78-20.85Z" opacity="1" transform="matrix(1,0,0,1,0,0)" fill="#ee3e38" class="wordmark-text-0" data-fill-palette-color="primary" id="text-0"></path></svg></g></svg></g></svg></g></svg></g><g transform="matrix(1,0,0,1,61.89520378918152,0)"><svg viewBox="0 0 36.209592421636955 35.595870516185485" height="35.595870516185485" width="36.209592421636955"><g><svg xmlns="http://www.w3.org/2000/svg" xmlns:xlink="http://www.w3.org/1999/xlink" version="1.1" x="0" y="0" viewBox="3 3 59 58" style="enable-background:new 0 0 64 64;" xml:space="preserve" height="35.595870516185485" width="36.209592421636955" class="icon-icon-0" data-fill-palette-color="accent" id="icon-0"><g fill="#8d021f" data-fill-palette-color="accent"><path d="M39 19c0-0.552-0.448-1-1-1h-9v3h10V19z" fill="#8d021f" data-fill-palette-color="accent"></path><path d="M41 19v2l2-3h1l2 3h1l2-3h1l2 3h1l2-3h1l2 3h1l3-4-3-4H29v3h9C39.654 16 41 17.346 41 19z" fill="#8d021f" data-fill-palette-color="accent"></path><path d="M6.839 30.848L11.649 27h15.24C26.956 26.672 27 26.34 27 26V8c0-2.757-2.243-5-5-5H8C5.243 3 3 5.243 3 8v18C3 28.324 4.603 30.315 6.839 30.848zM7.5 12.625C7.5 11.177 8.677 10 10.125 10h1.75c1.448 0 2.625 1.177 2.625 2.625v8.75c0 1.448-1.177 2.625-2.625 2.625h-1.75C8.677 24 7.5 22.823 7.5 21.375V12.625z" fill="#8d021f" data-fill-palette-color="accent"></path><rect x="25" y="49" width="8" height="6" fill="#8d021f" data-fill-palette-color="accent"></rect><rect x="9" y="49" width="8" height="6" fill="#8d021f" data-fill-palette-color="accent"></rect><path d="M49 45c-3.309 0-6 2.691-6 6v10h2V49h8v12h2V51C55 47.691 52.309 45 49 45z" fill="#8d021f" data-fill-palette-color="accent"></path><rect x="47" y="51" width="4" height="10" fill="#8d021f" data-fill-palette-color="accent"></rect><path d="M49.634 27.227c-0.358-0.293-0.914-0.292-1.265-0.003l-11.003 9.003c-0.426 0.349-0.49 0.979-0.142 1.405 0.336 0.412 0.992 0.479 1.411 0.141L49 29.292l10.368 8.482c0.412 0.337 1.069 0.268 1.405-0.141 0.35-0.427 0.286-1.059-0.142-1.409L49.634 27.227z" fill="#8d021f" data-fill-palette-color="accent"></path><path d="M49 31.876l-9.102 7.447c-0.27 0.219-0.578 0.37-0.898 0.477V61h2V51c0-4.411 3.589-8 8-8s8 3.589 8 8v10h2V39.827c-0.324-0.115-0.628-0.284-0.897-0.504L49 31.876z" fill="#8d021f" data-fill-palette-color="accent"></path><path d="M5 61h32V43H5V61zM23 47h12v10H23V47zM7 47h12v10H7V47z" fill="#8d021f" data-fill-palette-color="accent"></path><path d="M36.1 34.679L43.04 29H12.351l-7.5 6H33v2H3v4h34v-1.209c-0.509-0.173-0.976-0.467-1.323-0.893C34.631 37.62 34.819 35.728 36.1 34.679z" fill="#8d021f" data-fill-palette-color="accent"></path></g></svg></g></svg></g><g></g></svg></g></svg></g></svg></g></svg></g><defs></defs></svg><rect width="320" height="360" fill="none" stroke="none" visibility="hidden"></rect></g></svg></g></svg>